<?xml version="1.0" encoding="UTF-8" standalone="no"?>
<svg
   xmlns:dc="http://purl.org/dc/elements/1.1/"
   xmlns:cc="http://creativecommons.org/ns#"
   xmlns:rdf="http://www.w3.org/1999/02/22-rdf-syntax-ns#"
   xmlns:svg="http://www.w3.org/2000/svg"
   xmlns="http://www.w3.org/2000/svg"
   xmlns:sodipodi="http://sodipodi.sourceforge.net/DTD/sodipodi-0.dtd"
   xmlns:inkscape="http://www.inkscape.org/namespaces/inkscape"
   version="1.1"
   id="svg833"
   width="1333.3333"
   height="1333.3333"
   viewBox="0 0 1333.3333 1333.3333"
   sodipodi:docname="mandoline.svg"
   inkscape:version="1.0.1 (3bc2e813f5, 2020-09-07)"
   inkscape:export-filename="/home/badele/image.png"
   inkscape:export-xdpi="50.419998"
   inkscape:export-ydpi="50.419998">
  <metadata
     id="metadata839">
    <rdf:RDF>
      <cc:Work
         rdf:about="">
        <dc:format>image/svg+xml</dc:format>
        <dc:type
           rdf:resource="http://purl.org/dc/dcmitype/StillImage" />
        <dc:title />
      </cc:Work>
    </rdf:RDF>
  </metadata>
  <defs
     id="defs837" />
  <sodipodi:namedview
     pagecolor="#ffffff"
     bordercolor="#666666"
     borderopacity="1"
     objecttolerance="10"
     gridtolerance="10"
     guidetolerance="10"
     inkscape:pageopacity="0"
     inkscape:pageshadow="2"
     inkscape:window-width="1920"
     inkscape:window-height="1024"
     id="namedview835"
     showgrid="true"
     inkscape:zoom="1"
     inkscape:cx="620.99174"
     inkscape:cy="843.22204"
     inkscape:window-x="0"
     inkscape:window-y="28"
     inkscape:window-maximized="1"
     inkscape:current-layer="g841"
     inkscape:document-rotation="0"
     showguides="true"
     inkscape:snap-bbox="false"
     inkscape:object-nodes="false"
     inkscape:snap-nodes="false">
    <inkscape:grid
       type="xygrid"
       id="grid887" />
  </sodipodi:namedview>
  <g
     inkscape:groupmode="layer"
     inkscape:label="Image"
     id="g841">
    <path
       id="rect981-9-8-8"
       style="fill:#000000;fill-opacity:1;stroke:none;stroke-width:60.7597;stroke-opacity:1"
       d="m 560.49051,524.05889 c 0.182,4.1317 -11.7268,8.2761 -11.7266,12.42 -21.48243,27.979 -3.8541,109.8523 -82.30073,159.2207 H 77.445551 v 1.1543 c -23.7812,2.1779 -42.34755,32.7285 -42.34765,69.6796 10e-5,36.95115 18.56645,67.49795 42.34765,69.67585 v 0.5293 H 464.36748 c 70.8067,21.2714 64.736,136.6895 84.39643,158.5996 -7e-4,4.221 11.9042,8.44046 11.7149,12.64846 H 1558.2835 V 524.05889 Z M 94.189691,737.77569 a 28.246738,28.246738 0 0 1 0.125,0 28.246738,28.246738 0 0 1 28.248049,28.2461 28.246738,28.246738 0 0 1 -28.248049,28.24815 28.246738,28.246738 0 0 1 -28.24609,-28.24815 28.246738,28.246738 0 0 1 28.12109,-28.2461 z" />
    <text
       xml:space="preserve"
       style="font-style:normal;font-variant:normal;font-weight:normal;font-stretch:normal;font-size:53.3333px;line-height:1.25;font-family:'Alfa Slab One';-inkscape-font-specification:'Alfa Slab One, Normal';font-variant-ligatures:normal;font-variant-caps:normal;font-variant-numeric:normal;font-variant-east-asian:normal;letter-spacing:0px;word-spacing:0px;fill:#fffffb;fill-opacity:1;stroke:none;"
       x="161.41956"
       y="783.81226"
       id="text1085-1-8"><tspan
         sodipodi:role="line"
         id="tspan1083-2-3"
         x="161.41956"
         y="783.81226"
         dx="0 0 0">Mandoline</tspan></text>
    <circle
       style="fill:#ffffff;fill-opacity:1;stroke-width:60.7597"
       id="path851-93-1"
       cx="1104.8894"
       cy="620.37976"
       r="12.532326" />
    <circle
       style="fill:#ffffff;fill-opacity:1;stroke-width:60.7597"
       id="path851-6-9-8"
       cx="1235.2642"
       cy="703.87988"
       r="12.532326" />
    <circle
       style="fill:#ffffff;fill-opacity:1;stroke-width:60.7597"
       id="path851-9-0-9"
       cx="1234.8892"
       cy="840.37988"
       r="12.532326" />
    <circle
       style="fill:#ffffff;fill-opacity:1;stroke-width:60.7597"
       id="path851-4-8-6"
       cx="1104.8894"
       cy="925.37988"
       r="12.532326" />
    <rect
       style="fill:#ffffff;fill-opacity:1;stroke-width:60.7597"
       id="rect855-85-4"
       width="286.51352"
       height="13.088575"
       x="612.58582"
       y="612.3429"
       ry="6.1640081"
       rx="6.1640081" />
    <rect
       style="fill:#ffffff;fill-opacity:1;stroke-width:60.7598"
       id="rect855-6-0-3"
       width="334.67859"
       height="13.088575"
       x="612.45435"
       y="643.66663"
       ry="6.1640081"
       rx="6.1640086" />
    <rect
       style="fill:#ffffff;fill-opacity:1;stroke-width:60.7597"
       id="rect855-9-9-3"
       width="381.7782"
       height="13.088575"
       x="611.31128"
       y="675.42798"
       ry="6.1640081"
       rx="6.1640077" />
    <rect
       style="fill:#ffffff;fill-opacity:1;stroke-width:60.7597"
       id="rect855-4-6-3"
       width="429.05087"
       height="13.088575"
       x="612.16687"
       y="704.65039"
       ry="6.1640081"
       rx="6.1640086" />
    <rect
       style="fill:#ffffff;fill-opacity:1;stroke-width:60.7598"
       id="rect855-8-3-8"
       width="474.51636"
       height="13.088575"
       x="612.08691"
       y="735.97534"
       ry="6.1640081"
       rx="6.1640081" />
    <rect
       style="fill:#ffffff;fill-opacity:1;stroke-width:60.7597"
       id="rect855-1-8-6"
       width="523.21741"
       height="13.088575"
       x="611.93335"
       y="766.34302"
       ry="6.1640081"
       rx="6.1640081" />
    <rect
       style="fill:#ffffff;fill-opacity:1;stroke-width:60.7597"
       id="rect855-2-5-0"
       width="474.14801"
       height="13.088575"
       x="611.98682"
       y="797.34302"
       ry="6.1640081"
       rx="6.1640086" />
    <rect
       style="fill:#ffffff;fill-opacity:1;stroke-width:60.7596"
       id="rect855-93-6-4"
       width="428.53903"
       height="13.088575"
       x="611.92871"
       y="827.84302"
       ry="6.1640081"
       rx="6.1640077" />
    <rect
       style="fill:#ffffff;fill-opacity:1;stroke-width:60.7597"
       id="rect855-90-1-8"
       width="381.30872"
       height="13.088575"
       x="611.40991"
       y="859.2522"
       ry="6.1640081"
       rx="6.1640091" />
    <rect
       style="fill:#ffffff;fill-opacity:1;stroke-width:60.7597"
       id="rect855-88-1-8"
       width="334.31482"
       height="13.088575"
       x="611.45032"
       y="888.82764"
       ry="6.1640081"
       rx="6.1640081" />
    <rect
       style="fill:#ffffff;fill-opacity:1;stroke-width:60.7597"
       id="rect855-5-5-8"
       width="287.31589"
       height="13.088575"
       x="611.7832"
       y="918.34302"
       ry="6.1640081"
       rx="6.1640077" />
    <path
       style="fill:none;stroke:#ffffff;stroke-width:5.91496;stroke-linecap:butt;stroke-linejoin:miter;stroke-miterlimit:4;stroke-dasharray:none;stroke-opacity:1"
       d="m 938.65291,589.22259 h 141.69769 l 291.0414,180.78325 -286.3129,183.032 -141.18919,1.8929 271.04639,-183.5236 z"
       id="path928-9-9"
       sodipodi:nodetypes="ccccccc" />
    <path
       style="fill:none;stroke:#ffffff;stroke-width:4.02521;stroke-linecap:butt;stroke-linejoin:miter;stroke-miterlimit:4;stroke-dasharray:none;stroke-opacity:1"
       d="m 903.93591,588.32279 272.99759,182.69345 -268.79599,184.7297 -333.0474,-2.2815 c 1.4449,-101.3845 0.921,-254.94755 0.9981,-364.55325 129.2665,1.7824 198.5715,-0.04 327.8477,-0.5884 z"
       id="path930-3-6-9"
       sodipodi:nodetypes="cccccc" />
    <rect
       style="fill:#fffdff;fill-opacity:1;stroke-width:60.7597"
       id="rect855-17-21-2"
       width="360.48029"
       height="8.860136"
       x="1125.4121"
       y="582.36414"
       ry="6.1640081"
       rx="6.1640086" />
    <rect
       style="fill:#fffdff;fill-opacity:1;stroke-width:60.7597"
       id="rect855-17-5-7-2"
       width="311.61469"
       height="8.860136"
       x="1174.2773"
       y="612.48059"
       ry="6.1640081"
       rx="6.1640086" />
    <rect
       style="fill:#fffdff;fill-opacity:1;stroke-width:60.7597"
       id="rect855-17-9-8-4"
       width="266.80286"
       height="8.860136"
       x="1219.0894"
       y="643.60388"
       ry="6.1640081"
       rx="6.1640091" />
    <rect
       style="fill:#fffdff;fill-opacity:1;stroke-width:60.7597"
       id="rect855-17-6-5-7"
       width="220.04761"
       height="8.860136"
       x="1265.8445"
       y="673.76904"
       ry="6.1640081"
       rx="6.1640081" />
    <rect
       style="fill:#fffdff;fill-opacity:1;stroke-width:60.7597"
       id="rect855-17-2-7-7"
       width="178.00812"
       height="8.860136"
       x="1307.884"
       y="701.88599"
       ry="6.1640081"
       rx="6.1640086" />
    <rect
       style="fill:#fffdff;fill-opacity:1;stroke-width:60.7595"
       id="rect855-17-1-4-5"
       width="130.18594"
       height="8.860136"
       x="1355.7063"
       y="734.85327"
       ry="6.1640081"
       rx="6.1640086" />
    <rect
       style="fill:#fffdff;fill-opacity:1;stroke-width:60.7595"
       id="rect855-17-7-1-4"
       width="80.930237"
       height="8.860136"
       x="1404.9619"
       y="763.48071"
       ry="6.1640081"
       rx="6.1640086" />
    <rect
       style="fill:#fffdff;fill-opacity:1;stroke-width:60.7597"
       id="rect855-17-57-8-8"
       width="360.48029"
       height="8.860136"
       x="1124.7638"
       y="-953.54297"
       ry="6.1640081"
       rx="6.1640086"
       transform="scale(1,-1)" />
    <rect
       style="fill:#fffdff;fill-opacity:1;stroke-width:60.7597"
       id="rect855-17-5-4-5-1"
       width="311.61469"
       height="8.860136"
       x="1173.6289"
       y="-923.42651"
       ry="6.1640081"
       rx="6.1640086"
       transform="scale(1,-1)" />
    <rect
       style="fill:#fffdff;fill-opacity:1;stroke-width:60.7597"
       id="rect855-17-9-1-9-2"
       width="266.80286"
       height="8.860136"
       x="1218.4409"
       y="-892.30322"
       ry="6.1640081"
       rx="6.1640091"
       transform="scale(1,-1)" />
    <rect
       style="fill:#fffdff;fill-opacity:1;stroke-width:60.7597"
       id="rect855-17-6-8-7-8"
       width="220.04761"
       height="8.860136"
       x="1265.196"
       y="-862.13818"
       ry="6.1640081"
       rx="6.1640081"
       transform="scale(1,-1)" />
    <rect
       style="fill:#fffdff;fill-opacity:1;stroke-width:60.7597"
       id="rect855-17-2-5-5-9"
       width="178.00812"
       height="8.860136"
       x="1307.2356"
       y="-834.02124"
       ry="6.1640081"
       rx="6.1640086"
       transform="scale(1,-1)" />
    <rect
       style="fill:#fffdff;fill-opacity:1;stroke-width:60.7595"
       id="rect855-17-1-9-3-3"
       width="130.18594"
       height="8.860136"
       x="1355.0579"
       y="-801.05396"
       ry="6.1640081"
       rx="6.1640086"
       transform="scale(1,-1)" />
  </g>
</svg>
